Coordinates
version=1
nRows=32
nColumns=12
inDegrees=yes

Units are S.I. units (second, meters, Newtons, ...)
Angles are in degrees

endheader
time	SC_y	SC_z	SC_x	AC_y	AC_z	AC_x	GH_y	GH_z	GH_yy	EL_x	PS_y
       0.0              -20.88         0.2539          53.76          53.24         -6.364         -17.64           96.0          67.77         -12.86           49.7          158.7
   0.02506              -20.89         0.2579          53.76          53.25         -6.366         -17.64           96.0          67.77         -12.86          49.71          158.7
   0.05012              -20.89         0.2621          53.75          53.25         -6.368         -17.64           96.0          67.78         -12.85          49.71          158.7
   0.07519              -20.89         0.2667          53.74          53.25          -6.37         -17.64           96.0          67.78         -12.85          49.72          158.7
    0.1002               -20.9         0.2715          53.74          53.25         -6.372         -17.64           96.0          67.78         -12.84          49.72          158.7
    0.1253               -20.9         0.2766          53.73          53.25         -6.374         -17.64           96.0          67.79         -12.84          49.73          158.6
    0.1504               -20.9         0.2821          53.72          53.26         -6.376         -17.64           96.0          67.79         -12.83          49.73          158.6
    0.1754              -20.91          0.288          53.71          53.26         -6.379         -17.64           96.0          67.79         -12.82          49.74          158.6
    0.2005              -20.91         0.2943           53.7          53.26         -6.381         -17.64           96.0           67.8         -12.82          49.75          158.6
    0.2256              -20.92         0.3011          53.69          53.26         -6.384         -17.64           96.0           67.8         -12.81          49.75          158.5
    0.2506              -20.93         0.3083          53.68          53.26         -6.387         -17.64           96.0          67.81          -12.8          49.76          158.5
    0.2757              -20.93         0.3161          53.67          53.27          -6.39         -17.64           96.0          67.81         -12.79          49.77          158.5
    0.3007              -20.94         0.3245          53.66          53.27         -6.394         -17.64           96.0          67.82         -12.78          49.78          158.4
    0.3258              -20.95         0.3336          53.65          53.27         -6.398         -17.64           96.0          67.82         -12.77          49.79          158.4
    0.3509              -20.95         0.3435          53.63          53.28         -6.402         -17.64           96.0          67.83         -12.76           49.8          158.3
    0.3759              -20.96         0.3541          53.62          53.28         -6.406         -17.64           96.0          67.84         -12.75          49.81          158.3
     0.401              -20.97         0.3657           53.6          53.29         -6.411         -17.64           96.0          67.84         -12.74          49.82          158.2
    0.4261              -20.98         0.3783          53.58          53.29         -6.416         -17.64           96.0          67.85         -12.72          49.83          158.2
    0.4511              -20.99         0.3921          53.56           53.3         -6.422         -17.64           96.0          67.86         -12.71          49.85          158.1
    0.4762               -21.0         0.4072          53.54           53.3         -6.428         -17.64           96.0          67.87         -12.69          49.86          158.0
    0.5012              -21.02         0.4238          53.51          53.31         -6.435         -17.64           96.0          67.88         -12.67          49.88          158.0
    0.5263              -21.03         0.4421          53.49          53.31         -6.443         -17.64           96.0          67.89         -12.65           49.9          157.9
    0.5514              -21.05         0.4622          53.46          53.32         -6.451         -17.64           96.0          67.91         -12.63          49.92          157.8
    0.5764              -21.07         0.4845          53.43          53.33          -6.46         -17.64           96.0          67.92         -12.61          49.94          157.7
    0.6015              -21.08         0.5094          53.39          53.34         -6.471         -17.64           96.0          67.94         -12.58          49.97          157.6
    0.6265              -21.11         0.5371          53.35          53.35         -6.482         -17.64           96.0          67.96         -12.55           50.0          157.5
    0.6516              -21.13         0.5681          53.31          53.36         -6.495         -17.64           96.0          67.98         -12.51          50.03          157.3
    0.6767              -21.16          0.603          53.26          53.38          -6.51         -17.64           96.0           68.0         -12.47          50.06          157.1
    0.7017              -21.19         0.6424           53.2          53.39         -6.526         -17.64           96.0          68.02         -12.43           50.1          157.0
    0.7268              -21.23         0.6872          53.13          53.41         -6.545         -17.64           96.0          68.05         -12.38          50.15          156.8
    0.7519              -21.27         0.7383          53.06          53.43         -6.566         -17.64           96.0          68.09         -12.32           50.2          156.5
    0.7769              -21.31          0.797          52.97          53.45         -6.591         -17.64           96.0          68.12         -12.26          50.26          156.3
